<?xml version="1.0" ?>
<!-- Uploaded to: SVG Repo, www.svgrepo.com, Generator: SVG Repo Mixer Tools -->
<svg width="800px" height="800px" viewBox="0 0 25 25" xmlns="http://www.w3.org/2000/svg">
<defs>
<style>.cls-1{fill:#ff7900;}</style>
</defs>
<g data-name="world clock" id="world_clock">
<path class="cls-1" d="M14.63,22.82a.48.48,0,0,0,.09-.65.5.5,0,0,0-.7-.12,11.53,11.53,0,0,1-1,.62V18h.53a.47.47,0,0,0,.52-.47.5.5,0,0,0-.47-.53H13V13h6c0,.14,0,.28,0,.41a.5.5,0,0,0,.46.54.49.49,0,0,0,.54-.46c0-.16,0-.33,0-.49h3c0,.17,0,.35,0,.52a.5.5,0,0,0,.45.55.52.52,0,0,0,.55-.45c0-.37.05-.74.05-1.12a11.51,11.51,0,1,0-9.37,11.3.5.5,0,0,0,0-1ZM12,22.68a11.67,11.67,0,0,1-4.25-4.06A17.15,17.15,0,0,1,12,18ZM12,17a18.82,18.82,0,0,0-4.75.76A11.55,11.55,0,0,1,6,13h6ZM2,13H5a12.59,12.59,0,0,0,1.27,5,17.34,17.34,0,0,0-2.07.89A10.38,10.38,0,0,1,2,13ZM4.25,6a19.85,19.85,0,0,0,2.07.89A12.61,12.61,0,0,0,5,12H2A10.4,10.4,0,0,1,4.25,6ZM13,2.32a11.67,11.67,0,0,1,4.25,4.06A17.32,17.32,0,0,1,13,7ZM12,7a17.76,17.76,0,0,1-4.22-.66,11.83,11.83,0,0,1,4.22-4Zm0,1v4H6A11.51,11.51,0,0,1,7.28,7.22,18.4,18.4,0,0,0,12,8Zm1,0a18.38,18.38,0,0,0,4.74-.72A11.54,11.54,0,0,1,19,12H13Zm10,4H20A12.56,12.56,0,0,0,18.7,7a20,20,0,0,0,2.1-.87A10.37,10.37,0,0,1,23,12ZM20.12,5.3a17.49,17.49,0,0,1-1.89.78,12.52,12.52,0,0,0-3.49-3.83A10.37,10.37,0,0,1,20.12,5.3Zm-9.86-3A12.67,12.67,0,0,0,6.81,6a18.15,18.15,0,0,1-1.88-.78A10.46,10.46,0,0,1,10.26,2.25ZM4.89,19.71a15.49,15.49,0,0,1,1.88-.78,12.73,12.73,0,0,0,3.49,3.82A10.44,10.44,0,0,1,4.89,19.71Z"/>
<path class="cls-1" d="M19.5,15A4.5,4.5,0,1,0,24,19.5,4.51,4.51,0,0,0,19.5,15Zm0,8A3.5,3.5,0,1,1,23,19.5,3.5,3.5,0,0,1,19.5,23Z"/>
<path class="cls-1" d="M21.72,20.05,20,19.19V17.5a.5.5,0,0,0-1,0v2a.51.51,0,0,0,.28.45l2,1a.54.54,0,0,0,.22.05.5.5,0,0,0,.22-.95Z"/>
</g>
</svg>